<svg width="22" height="23" viewBox="0 0 22 23" fill="none" xmlns="http://www.w3.org/2000/svg">
<path d="M8.47918 20.6097C8.31112 20.6097 8.15452 20.5484 8.00939 20.4259C7.86425 20.3034 7.79168 20.1349 7.79168 19.9204V16.497H7.56251C5.94307 16.497 4.58334 15.9111 3.48334 14.7393C2.38334 13.5675 1.83334 12.1698 1.83334 10.5461C1.83334 8.87653 2.41008 7.4635 3.56355 6.30703C4.71702 5.15056 6.1264 4.57233 7.79168 4.57233H9.00626L14.2083 4.57232L13.7156 4.76762L13.5208 5.26162L13.75 5.49139L14.2083 5.95091H11C11 5.95091 10.0375 5.95091 9.85418 5.95091C9.67084 5.95091 9.62501 5.95091 9.62501 5.95091H9.16668L9.00626 5.9509H7.79168C6.52362 5.9509 5.44272 6.39893 4.54897 7.295C3.65522 8.19108 3.20834 9.27479 3.20834 10.5461C3.20834 11.8022 3.62466 12.882 4.4573 13.7858C5.28994 14.6895 6.32501 15.1414 7.56251 15.1414H9.16668V18.2432L12.2833 15.1414H14.2313C15.4993 15.1414 16.5764 14.6933 17.4625 13.7973C18.3486 12.9012 18.7917 11.8098 18.7917 10.5232C18.7917 9.25181 18.3448 8.17193 17.4511 7.28352C16.5573 6.3951 15.4764 5.95091 14.2083 5.95091C14.0097 5.95091 13.8455 5.8858 13.7156 5.7556C13.5858 5.6254 13.5208 5.46075 13.5208 5.26162C13.5208 5.0625 13.5858 4.89782 13.7156 4.76762C13.8455 4.63743 14.0097 4.57232 14.2083 4.57232C15.8583 4.57232 17.2639 5.15056 18.425 6.30703C19.5861 7.4635 20.1667 8.86887 20.1667 10.5232C20.1667 12.1928 19.5899 13.6096 18.4365 14.7738C17.283 15.9379 15.8813 16.5199 14.2313 16.5199H12.8563L8.96043 20.4029C8.88404 20.4795 8.80383 20.5331 8.7198 20.5638C8.63577 20.5944 8.55557 20.6097 8.47918 20.6097Z" fill="#7C7C7C"/>
</svg>
