<svg width="22" height="23" viewBox="0 0 22 23" fill="none" xmlns="http://www.w3.org/2000/svg">
<path d="M11 20.1732L10.0604 19.323C8.4445 17.8354 7.10858 16.5521 6.05264 15.4731C4.9967 14.3942 4.15554 13.4296 3.52915 12.5795C2.90276 11.7294 2.46352 10.9597 2.21144 10.2704C1.95935 9.58113 1.83331 8.88418 1.83331 8.17958C1.83331 6.79863 2.29547 5.64541 3.21977 4.71989C4.14408 3.79437 5.28609 3.3316 6.64581 3.3316C7.51665 3.3316 8.32255 3.53839 9.06352 3.95196C9.80449 4.36553 10.45 4.96291 11 5.7441C11.6416 4.91696 12.3215 4.30809 13.0396 3.9175C13.7576 3.5269 14.5291 3.3316 15.3541 3.3316C16.7139 3.3316 17.8559 3.79437 18.7802 4.71989C19.7045 5.64541 20.1666 6.79863 20.1666 8.17958C20.1666 8.88418 20.0406 9.58113 19.7885 10.2704C19.5364 10.9597 19.0972 11.7294 18.4708 12.5795C17.8444 13.4296 17.0033 14.3942 15.9473 15.4731C14.8914 16.5521 13.5555 17.8354 11.9396 19.323L11 20.1732ZM11 18.358C12.5466 16.9336 13.8194 15.712 14.8183 14.6934C15.8172 13.6747 16.6107 12.7825 17.1989 12.0166C17.7871 11.2507 18.1996 10.5681 18.4364 9.96862C18.6732 9.36916 18.7916 8.77392 18.7916 8.18291C18.7916 7.16974 18.4708 6.33766 17.8291 5.68666C17.1875 5.03567 16.3642 4.71018 15.3593 4.71018C14.5721 4.71018 13.8436 4.95143 13.1736 5.43393C12.5037 5.91643 11.9625 6.59422 11.55 7.46732H10.4271C10.0298 6.60954 9.49626 5.93557 8.82633 5.44541C8.15639 4.95525 7.42783 4.71018 6.64066 4.71018C5.63576 4.71018 4.81248 5.03567 4.17081 5.68666C3.52915 6.33766 3.20831 7.17105 3.20831 8.18684C3.20831 8.77938 3.32672 9.37817 3.56352 9.98321C3.80033 10.5883 4.21283 11.2775 4.80102 12.0511C5.38922 12.8246 6.18748 13.7168 7.19581 14.7278C8.20415 15.7387 9.4722 16.9488 11 18.358Z" fill="url(#paint0_linear_41_71)"/>
<defs>
<linearGradient id="paint0_linear_41_71" x1="1.83331" y1="11.7524" x2="20.1666" y2="11.7524" gradientUnits="userSpaceOnUse">
<stop stop-color="#FA973C"/>
<stop offset="0.59" stop-color="#EA6D80"/>
<stop offset="1" stop-color="#B82BAA"/>
</linearGradient>
</defs>
</svg>
