<svg width="22" height="22" viewBox="0 0 22 22" fill="none" xmlns="http://www.w3.org/2000/svg">
<path d="M11 20C9.74 20 8.5625 19.7638 7.4675 19.2913C6.3725 18.8188 5.42 18.1775 4.61 17.3675C3.8 16.5575 3.1625 15.6013 2.6975 14.4988C2.2325 13.3963 2 12.215 2 10.955C2 9.695 2.2325 8.52125 2.6975 7.43375C3.1625 6.34625 3.8 5.3975 4.61 4.5875C5.42 3.7775 6.3725 3.14375 7.4675 2.68625C8.5625 2.22875 9.74 2 11 2C12.26 2 13.4375 2.22875 14.5325 2.68625C15.6275 3.14375 16.58 3.7775 17.39 4.5875C18.2 5.3975 18.8375 6.34625 19.3025 7.43375C19.7675 8.52125 20 9.695 20 10.955C20 12.215 19.7675 13.3963 19.3025 14.4988C18.8375 15.6013 18.2 16.5575 17.39 17.3675C16.58 18.1775 15.6275 18.8188 14.5325 19.2913C13.4375 19.7638 12.26 20 11 20ZM11 18.695C11.525 18.155 11.9638 17.5363 12.3163 16.8388C12.6688 16.1413 12.9575 15.3125 13.1825 14.3525H8.84C9.05 15.2525 9.33125 16.0625 9.68375 16.7825C10.0363 17.5025 10.475 18.14 11 18.695ZM9.0875 18.425C8.7125 17.855 8.39 17.24 8.12 16.58C7.85 15.92 7.625 15.1775 7.445 14.3525H4.07C4.64 15.4175 5.3 16.2538 6.05 16.8613C6.8 17.4688 7.8125 17.99 9.0875 18.425ZM12.935 18.4025C14.015 18.0575 14.9863 17.54 15.8488 16.85C16.7113 16.16 17.405 15.3275 17.93 14.3525H14.5775C14.3825 15.1625 14.1538 15.8975 13.8913 16.5575C13.6288 17.2175 13.31 17.8325 12.935 18.4025ZM3.62 13.0025H7.1975C7.1525 12.5975 7.12625 12.2338 7.11875 11.9113C7.11125 11.5888 7.1075 11.27 7.1075 10.955C7.1075 10.58 7.115 10.2463 7.13 9.95375C7.145 9.66125 7.175 9.335 7.22 8.975H3.62C3.515 9.335 3.44375 9.6575 3.40625 9.9425C3.36875 10.2275 3.35 10.565 3.35 10.955C3.35 11.345 3.36875 11.6938 3.40625 12.0013C3.44375 12.3088 3.515 12.6425 3.62 13.0025ZM8.5925 13.0025H13.43C13.49 12.5375 13.5275 12.1588 13.5425 11.8663C13.5575 11.5738 13.565 11.27 13.565 10.955C13.565 10.655 13.5575 10.3663 13.5425 10.0887C13.5275 9.81125 13.49 9.44 13.43 8.975H8.5925C8.5325 9.44 8.495 9.81125 8.48 10.0887C8.465 10.3663 8.4575 10.655 8.4575 10.955C8.4575 11.27 8.465 11.5738 8.48 11.8663C8.495 12.1588 8.5325 12.5375 8.5925 13.0025ZM14.78 13.0025H18.38C18.485 12.6425 18.5563 12.3088 18.5938 12.0013C18.6313 11.6938 18.65 11.345 18.65 10.955C18.65 10.565 18.6313 10.2275 18.5938 9.9425C18.5563 9.6575 18.485 9.335 18.38 8.975H14.8025C14.8475 9.5 14.8775 9.90125 14.8925 10.1788C14.9075 10.4563 14.915 10.715 14.915 10.955C14.915 11.285 14.9038 11.5963 14.8813 11.8888C14.8588 12.1813 14.825 12.5525 14.78 13.0025ZM14.555 7.625H17.93C17.435 6.59 16.7563 5.7275 15.8938 5.0375C15.0313 4.3475 14.0375 3.86 12.9125 3.575C13.2875 4.13 13.6063 4.73 13.8688 5.375C14.1313 6.02 14.36 6.77 14.555 7.625ZM8.84 7.625H13.205C13.04 6.83 12.7625 6.06125 12.3725 5.31875C11.9825 4.57625 11.525 3.92 11 3.35C10.52 3.755 10.115 4.2875 9.785 4.9475C9.455 5.6075 9.14 6.5 8.84 7.625ZM4.07 7.625H7.4675C7.6325 6.815 7.8425 6.09125 8.0975 5.45375C8.3525 4.81625 8.675 4.1975 9.065 3.5975C7.94 3.8825 6.9575 4.3625 6.1175 5.0375C5.2775 5.7125 4.595 6.575 4.07 7.625Z" fill="#F1F1F1"/>
</svg>
