<svg width="118" height="38" viewBox="0 0 118 38" fill="none" xmlns="http://www.w3.org/2000/svg">
<path d="M33.8201 23.2138C33.8195 18.0938 33.8499 13.1144 33.7957 8.13587C33.783 6.96482 34.2127 6.5465 35.3887 6.56665C38.3497 6.6174 41.313 6.47793 44.2711 6.75459C48.0905 7.11182 50.5303 10.2737 49.4599 13.5256C49.0826 14.6719 48.3915 15.399 46.6684 16.4576C46.6969 16.8284 47.0473 16.834 47.2883 16.9325C49.4709 17.8242 50.4882 19.5055 50.5004 21.6978C50.5128 23.9356 49.4677 25.6659 47.3364 26.6931C46.2793 27.2026 45.1598 27.519 43.9793 27.5294C41.0641 27.555 38.148 27.5143 35.2333 27.5625C34.1664 27.5802 33.7334 27.214 33.8058 26.1723C33.8708 25.2371 33.8199 24.2943 33.8201 23.2138ZM44.7323 19.3972C43.2948 18.1511 41.5283 18.6084 39.8655 18.5081C38.9053 18.4501 38.5767 18.8841 38.5986 19.7653C38.7142 24.4254 37.8569 23.6985 42.6266 23.6713C45.2953 23.6561 46.2771 21.7643 44.7323 19.3972ZM38.5004 15.0667C38.5004 15.5667 41.507 15.2887 42.5118 15.18C43.6583 15.0559 44.4782 14.4157 44.7921 13.2975C45.0329 12.4394 44.6322 11.1434 44.0004 10.5667C43.3874 10.0072 41.5004 10.0667 40.0004 10.0667C39.5004 10.0667 38.6332 9.92976 38.5004 10.5667C38.3675 11.2035 38.5004 14.5667 38.5004 15.0667Z" fill="url(#paint0_linear_189_725)"/>
<path d="M105.558 12.0039C106.337 12.3434 106.842 12.854 107.395 13.3908C107.918 12.9802 107.619 12.2992 108.002 11.8486C108.11 11.8131 108.243 11.7377 108.38 11.7288C112.411 11.4676 112.412 11.4687 112.412 15.3267C112.412 19.323 112.418 23.3194 112.409 27.3158C112.403 30.0657 111.035 32.0089 108.351 32.8679C105.335 33.833 102.326 33.8791 99.4735 32.3087C98.2594 31.6404 97.3678 30.6846 97.0838 29.072C98.9387 28.9661 100.61 27.8844 102.395 29.5387C103.447 30.5143 105.057 30.292 106.404 29.6939C107.655 29.1385 107.811 27.9968 107.824 26.8279C107.829 26.3131 107.825 25.7982 107.825 24.9444C106.409 26.5866 104.861 27.2826 102.877 27.1879C100.207 27.0605 98.3093 25.8753 97.2899 23.559C96.0527 20.7482 96.1211 17.855 97.4321 15.0764C98.9036 11.9576 102.104 10.7665 105.558 12.0039ZM101.533 17.913C101.146 19.1733 101.242 20.4219 101.684 21.6444C102.17 22.9917 103.129 23.6851 104.658 23.6514C106.139 23.6186 107.012 22.8502 107.449 21.5853C107.854 20.4155 107.944 19.2246 107.601 17.9881C107.103 16.1896 106.264 15.3059 104.779 15.2393C103.057 15.162 102.287 15.7519 101.533 17.913Z" fill="url(#paint1_linear_189_725)"/>
<path d="M90.1494 28.4457C84.6029 30.2194 79.4367 27.6919 78.1419 22.5647C77.6039 20.4342 77.7777 18.2746 79.0591 16.3897C79.7699 15.3441 80.1001 14.3191 80.0306 13.0709C79.9549 11.7096 80.3177 11.4955 81.5798 12.1449C82.5956 12.6675 83.5624 12.7961 84.6604 12.4905C85.8613 12.1562 87.1024 12.164 88.2996 12.5037C89.6179 12.8777 90.8505 12.8527 92.1645 12.3758C93.4824 11.8975 93.8769 12.3037 93.5795 13.621C93.3446 14.6612 93.3968 15.5423 93.9875 16.5634C96.423 20.7733 94.6466 26.2185 90.1494 28.4457ZM87.8532 15.7683C86.4986 15.3685 85.2281 15.4611 84.1523 16.44C82.0317 18.3695 82.0386 22.5278 84.1496 24.4609C85.6774 25.8601 87.8163 25.7024 89.2304 24.1795C90.9734 22.3025 91.0326 17.2896 87.8532 15.7683Z" fill="url(#paint2_linear_189_725)"/>
<path d="M73.428 26.1734C69.6653 28.5588 65.0763 28.1917 62.4141 25.3633C59.7334 22.5154 59.5623 17.3494 62.0456 14.2388C63.9606 11.8401 67.4515 10.8801 70.9025 11.8032C73.8036 12.5791 75.8156 14.9947 76.2265 18.0491C76.6465 21.1709 76.0489 23.9361 73.428 26.1734ZM66.5122 23.489C68.5721 24.6988 70.3299 24.1601 71.1498 22.047C71.8258 20.3048 71.7556 18.5637 71.0255 16.8526C70.5387 15.7115 69.6462 15.0285 68.3574 15.0177C67.0625 15.0069 66.1434 15.6806 65.6815 16.8302C64.7703 19.098 64.7913 21.3004 66.5122 23.489Z" fill="url(#paint3_linear_189_725)"/>
<path d="M56.4428 6.44744C57.529 6.46637 57.791 6.99721 57.7887 7.83715C57.7726 13.9012 57.7668 19.9653 57.7922 26.0293C57.7965 27.0509 57.4133 27.453 56.3364 27.4302C52.3461 27.3458 52.9987 27.8223 52.9707 24.2392C52.9304 19.0686 52.9598 13.8974 52.9678 8.72648C52.9714 6.44564 52.9807 6.44521 55.2883 6.43522C55.6287 6.43375 55.9691 6.43878 56.4428 6.44744Z" fill="url(#paint4_linear_189_725)"/>
<path d="M85.4472 22.236C84.3022 21.4126 84.0785 20.1995 84.631 19.2769C85.2072 18.3149 86.1465 17.9752 87.2396 18.316C88.4183 18.6834 88.8779 19.5587 88.7352 20.7204C88.5781 21.9986 87.2396 22.8005 85.4472 22.236Z" fill="url(#paint5_linear_189_725)"/>
<path d="M13.3096 31.8139C12.0903 32.1891 10.9353 32.0555 9.75288 31.4526C11.1057 30.8625 11.5464 29.7958 11.8073 28.4933C10.1619 27.6385 8.61901 26.6304 7.32591 25.2508C3.78263 21.4707 3.42946 15.0222 6.3428 11.0977C7.35035 9.74053 7.55503 8.40187 7.29579 6.87216C7.18623 6.22568 6.93896 5.50538 7.59179 5.03724C8.2744 4.54775 8.91775 5.07371 9.46837 5.39334C10.925 6.23884 12.3288 6.35252 14.0342 5.94921C15.9434 5.49768 18.0549 5.42161 19.9353 6.134C21.4565 6.71033 22.7461 6.42769 24.1412 5.96361C25.0302 5.66786 26.0761 4.94343 26.872 5.71535C27.5198 6.34354 26.8557 7.32776 26.6653 8.11534C26.3555 9.39689 26.4742 10.4445 27.1881 11.6689C30.2773 16.9672 28.837 24.3063 22.87 27.676C22.5448 27.8596 22.1496 27.9792 21.96 28.475C22.9126 29.2133 22.9285 30.7596 24.4853 31.1029C24.8989 31.1941 24.8206 31.7922 24.3253 31.9288C23.3143 32.2074 22.2766 32.4356 21.1915 31.8153C21.5484 31.1047 22.448 30.5046 21.4572 29.7345C20.7806 29.2086 20.1924 28.4671 19.1042 29.2674C19.5981 30.1046 19.1094 31.4161 20.6196 31.8013C21.1187 31.9286 21.0688 32.5163 20.6127 32.6167C19.5645 32.8473 18.4696 32.9708 17.1965 32.338C18.6495 31.5004 18.6169 30.5733 17.7248 29.6385C17.3114 29.2054 16.7322 29.1471 16.3523 29.6998C15.709 30.6358 15.4857 31.5681 16.8238 32.199C15.6735 33.0762 14.0251 32.979 13.4235 31.9264C15.3439 31.5901 14.5583 30.119 15.0925 29.2417C12.9162 28.9001 12.8598 28.9339 12.4531 30.7067C12.7852 31.0331 13.5162 31.0913 13.3096 31.8139ZM9.54281 24.6243C11.7466 26.6625 14.3745 27.4467 17.4031 27.2698C24.1982 26.8729 29.1631 19.8186 25.633 12.9556C23.6932 9.18436 20.2261 7.47523 15.9301 7.70206C11.7253 7.92409 8.63129 10.0407 7.12122 13.8447C5.56543 17.7639 6.2679 21.4115 9.54281 24.6243Z" fill="url(#paint6_linear_189_725)"/>
<path d="M22.9536 16.6658C23.1584 19.0786 22.7137 21.2088 21.0487 23.0612C18.8425 25.5156 15.1595 25.7519 12.6139 23.5777C9.16904 20.6353 9.1208 14.5398 12.5188 11.5547C14.8639 9.49465 18.5427 9.5758 20.7952 11.7838C22.1609 13.1226 22.9636 14.6954 22.9536 16.6658ZM21.1266 16.7467C21.0539 15.1633 20.4158 13.7906 19.1163 12.6976C17.5322 11.3653 15.3274 11.432 13.8333 12.8215C11.2921 15.1847 11.2618 19.8196 13.7719 22.2112C15.3811 23.7445 17.8142 23.7285 19.395 22.1606C20.8813 20.6865 21.2311 18.9008 21.1266 16.7467Z" fill="url(#paint7_linear_189_725)"/>
<path d="M14.3428 19.8704C13.1934 18.522 13.0774 17.1111 13.8723 15.73C14.5464 14.5588 15.7559 14.1188 17.1109 14.2915C18.3347 14.4474 19.3689 15.0357 19.7428 16.2307C20.1327 17.477 20.1624 18.7617 19.1002 19.7838C18.0568 20.7881 16.7653 20.8282 15.4386 20.4885C15.0771 20.396 14.7623 20.1326 14.3428 19.8704Z" fill="url(#paint8_linear_189_725)"/>
<defs>
<linearGradient id="paint0_linear_189_725" x1="33.6384" y1="16.9324" x2="50.3434" y2="16.9324" gradientUnits="userSpaceOnUse">
<stop stop-color="#FA973C"/>
<stop offset="1" stop-color="#E97C58"/>
</linearGradient>
<linearGradient id="paint1_linear_189_725" x1="96.4038" y1="22.5357" x2="112.414" y2="22.5357" gradientUnits="userSpaceOnUse">
<stop stop-color="#CA449A"/>
<stop offset="1" stop-color="#B82BAA"/>
</linearGradient>
<linearGradient id="paint2_linear_189_725" x1="77.8555" y1="20.4013" x2="95.0829" y2="20.4013" gradientUnits="userSpaceOnUse">
<stop stop-color="#DD5D8B"/>
<stop offset="0.57" stop-color="#D45093"/>
<stop offset="1" stop-color="#CA449A"/>
</linearGradient>
<linearGradient id="paint3_linear_189_725" x1="60.2881" y1="19.6027" x2="76.3488" y2="19.6027" gradientUnits="userSpaceOnUse">
<stop stop-color="#EA6D80"/>
<stop offset="1" stop-color="#DE5D8B"/>
</linearGradient>
<linearGradient id="paint4_linear_189_725" x1="52.9468" y1="16.933" x2="57.7923" y2="16.933" gradientUnits="userSpaceOnUse">
<stop stop-color="#E97C58"/>
<stop offset="0.56" stop-color="#E9756C"/>
<stop offset="1" stop-color="#EA6D80"/>
</linearGradient>
<linearGradient id="paint5_linear_189_725" x1="84.3423" y1="20.3034" x2="88.7604" y2="20.3034" gradientUnits="userSpaceOnUse">
<stop stop-color="#D45093"/>
<stop offset="1" stop-color="#D45093"/>
</linearGradient>
<linearGradient id="paint6_linear_189_725" x1="4.38721" y1="18.8208" x2="28.7684" y2="18.8208" gradientUnits="userSpaceOnUse">
<stop stop-color="#FA973C"/>
<stop offset="0.59" stop-color="#EA6D80"/>
<stop offset="1" stop-color="#B82BAA"/>
</linearGradient>
<linearGradient id="paint7_linear_189_725" x1="10" y1="17.5666" x2="23" y2="17.5666" gradientUnits="userSpaceOnUse">
<stop stop-color="#FA973C"/>
<stop offset="0.59" stop-color="#EA6D80"/>
<stop offset="1" stop-color="#B82BAA"/>
</linearGradient>
<linearGradient id="paint8_linear_189_725" x1="13.3618" y1="17.4679" x2="19.9912" y2="17.4679" gradientUnits="userSpaceOnUse">
<stop stop-color="#FA973C"/>
<stop offset="0.59" stop-color="#EA6D80"/>
<stop offset="1" stop-color="#B82BAA"/>
</linearGradient>
</defs>
</svg>
