<svg width="16" height="16" viewBox="0 0 16 16" fill="none" xmlns="http://www.w3.org/2000/svg">
<g clip-path="url(#clip0_100_264)">
<path d="M12.0001 5.33333H11.3334V4C11.3334 2.16 9.84008 0.666664 8.00008 0.666664C6.16008 0.666664 4.66675 2.16 4.66675 4V5.33333H4.00008C3.26675 5.33333 2.66675 5.93333 2.66675 6.66666V13.3333C2.66675 14.0667 3.26675 14.6667 4.00008 14.6667H12.0001C12.7334 14.6667 13.3334 14.0667 13.3334 13.3333V6.66666C13.3334 5.93333 12.7334 5.33333 12.0001 5.33333ZM8.00008 11.3333C7.26675 11.3333 6.66675 10.7333 6.66675 10C6.66675 9.26666 7.26675 8.66666 8.00008 8.66666C8.73342 8.66666 9.33342 9.26666 9.33342 10C9.33342 10.7333 8.73342 11.3333 8.00008 11.3333ZM10.0667 5.33333H5.93341V4C5.93341 2.86 6.86008 1.93333 8.00008 1.93333C9.14008 1.93333 10.0667 2.86 10.0667 4V5.33333Z" fill="#9A9A9A"/>
</g>
<defs>
<clipPath id="clip0_100_264">
<rect width="16" height="16" fill="white"/>
</clipPath>
</defs>
</svg>
