<svg width="24" height="24" viewBox="0 0 24 24" fill="none" xmlns="http://www.w3.org/2000/svg">
<path d="M7.09999 11.35C7.33332 10.8833 7.57499 10.4333 7.82499 9.99999C8.07499 9.56666 8.34999 9.13332 8.64999 8.69999L7.24999 8.42499L5.14999 10.525L7.09999 11.35ZM19.15 4.47499C17.9833 4.50832 16.7375 4.84999 15.4125 5.49999C14.0875 6.14999 12.8833 7.01666 11.8 8.09999C11.1 8.79999 10.475 9.54999 9.92499 10.35C9.37499 11.15 8.96665 11.9 8.69999 12.6L11.55 15.425C12.25 15.1583 13 14.75 13.8 14.2C14.6 13.65 15.35 13.025 16.05 12.325C17.1333 11.2417 18 10.0417 18.65 8.72499C19.3 7.40832 19.6417 6.16666 19.675 4.99999C19.675 4.93332 19.6625 4.86666 19.6375 4.79999C19.6125 4.73332 19.575 4.67499 19.525 4.62499C19.475 4.57499 19.4167 4.53749 19.35 4.51249C19.2833 4.48749 19.2167 4.47499 19.15 4.47499ZM13.65 10.475C13.2667 10.0917 13.075 9.62082 13.075 9.06249C13.075 8.50416 13.2667 8.03332 13.65 7.64999C14.0333 7.26666 14.5083 7.07499 15.075 7.07499C15.6417 7.07499 16.1167 7.26666 16.5 7.64999C16.8833 8.03332 17.075 8.50416 17.075 9.06249C17.075 9.62082 16.8833 10.0917 16.5 10.475C16.1167 10.8583 15.6417 11.05 15.075 11.05C14.5083 11.05 14.0333 10.8583 13.65 10.475ZM12.8 17.025L13.625 19L15.725 16.9L15.45 15.5C15.0167 15.8 14.5833 16.0708 14.15 16.3125C13.7167 16.5542 13.2667 16.7917 12.8 17.025ZM21.575 3.67499C21.7083 5.50832 21.4083 7.29582 20.675 9.03749C19.9417 10.7792 18.7833 12.4417 17.2 14.025L17.7 16.5C17.7667 16.8333 17.75 17.1583 17.65 17.475C17.55 17.7917 17.3833 18.0667 17.15 18.3L14 21.45C13.75 21.7 13.45 21.7958 13.1 21.7375C12.75 21.6792 12.5083 21.4833 12.375 21.15L10.85 17.575L6.57499 13.3L2.99999 11.775C2.66665 11.6417 2.46665 11.4 2.39999 11.05C2.33332 10.7 2.42499 10.4 2.67499 10.15L5.82499 6.99999C6.05832 6.76666 6.33749 6.59999 6.66249 6.49999C6.98749 6.39999 7.31665 6.38332 7.64999 6.44999L10.125 6.94999C11.7083 5.36666 13.3708 4.20832 15.1125 3.47499C16.8542 2.74166 18.6417 2.44166 20.475 2.57499C20.6083 2.59166 20.7417 2.62916 20.875 2.68749C21.0083 2.74582 21.125 2.82499 21.225 2.92499C21.325 3.02499 21.4042 3.14166 21.4625 3.27499C21.5208 3.40832 21.5583 3.54166 21.575 3.67499ZM3.92499 15.975C4.50832 15.3917 5.22082 15.0958 6.06249 15.0875C6.90415 15.0792 7.61665 15.3667 8.19999 15.95C8.78332 16.5333 9.07082 17.2458 9.06249 18.0875C9.05415 18.9292 8.75832 19.6417 8.17499 20.225C7.37499 21.025 6.42915 21.5 5.33749 21.65C4.24582 21.8 3.14999 21.95 2.04999 22.1C2.19999 21 2.34999 19.9042 2.49999 18.8125C2.64999 17.7208 3.12499 16.775 3.92499 15.975ZM5.34999 17.375C5.06665 17.6583 4.87082 18 4.76249 18.4C4.65415 18.8 4.56665 19.2083 4.49999 19.625C4.91665 19.5583 5.32499 19.475 5.72499 19.375C6.12499 19.275 6.46665 19.0833 6.74999 18.8C6.94999 18.6 7.05832 18.3583 7.07499 18.075C7.09165 17.7917 6.99999 17.55 6.79999 17.35C6.59999 17.15 6.35832 17.0542 6.07499 17.0625C5.79165 17.0708 5.54999 17.175 5.34999 17.375Z" fill="url(#paint0_linear_50_11)"/>
<defs>
<linearGradient id="paint0_linear_50_11" x1="2.04999" y1="12.3221" x2="21.6058" y2="12.3221" gradientUnits="userSpaceOnUse">
<stop stop-color="#FA973C"/>
<stop offset="0.59" stop-color="#EA6D80"/>
<stop offset="1" stop-color="#B82BAA"/>
</linearGradient>
</defs>
</svg>
