<svg width="24" height="24" viewBox="0 0 24 24" fill="none" xmlns="http://www.w3.org/2000/svg">
<path d="M10.5 16C8.68333 16 7.14583 15.3708 5.8875 14.1125C4.62917 12.8542 4 11.3167 4 9.5C4 7.68333 4.62917 6.14583 5.8875 4.8875C7.14583 3.62917 8.68333 3 10.5 3C12.3167 3 13.8542 3.62917 15.1125 4.8875C16.3708 6.14583 17 7.68333 17 9.5C17 10.2333 16.8833 10.925 16.65 11.575C16.4167 12.225 16.1 12.8 15.7 13.3L21.3 18.9C21.4833 19.0833 21.575 19.3167 21.575 19.6C21.575 19.8833 21.4833 20.1167 21.3 20.3C21.1167 20.4833 20.8833 20.575 20.6 20.575C20.3167 20.575 20.0833 20.4833 19.9 20.3L14.3 14.7C13.8 15.1 13.225 15.4167 12.575 15.65C11.925 15.8833 11.2333 16 10.5 16ZM10.5 14C11.75 14 12.8125 13.5625 13.6875 12.6875C14.5625 11.8125 15 10.75 15 9.5C15 8.25 14.5625 7.1875 13.6875 6.3125C12.8125 5.4375 11.75 5 10.5 5C9.25 5 8.1875 5.4375 7.3125 6.3125C6.4375 7.1875 6 8.25 6 9.5C6 10.75 6.4375 11.8125 7.3125 12.6875C8.1875 13.5625 9.25 14 10.5 14Z" fill="#545454"/>
</svg>
