<svg width="36" height="36" viewBox="0 0 36 36" fill="none" xmlns="http://www.w3.org/2000/svg">
<path d="M17.175 32.9625C15.2 32.8625 13.35 32.4 11.625 31.575C9.9 30.75 8.4 29.6688 7.125 28.3313C5.85 26.9938 4.84375 25.4404 4.10625 23.6712C3.36875 21.902 3 20.0116 3 18C3 15.925 3.39375 13.975 4.18125 12.15C4.96875 10.325 6.0375 8.7375 7.3875 7.3875C8.7375 6.0375 10.325 4.96875 12.15 4.18125C13.975 3.39375 15.925 3 18 3C21.725 3 24.9625 4.175 27.7125 6.525C30.4625 8.875 32.15 11.825 32.775 15.375H30.4875C30.0625 13.275 29.175 11.4 27.825 9.75C26.475 8.1 24.7875 6.8625 22.7625 6.0375V6.7125C22.7625 7.5875 22.4625 8.35 21.8625 9C21.2625 9.65 20.525 9.975 19.65 9.975H16.3875V13.2375C16.3875 13.6519 16.2188 13.9992 15.8813 14.2795C15.5438 14.5598 15.1625 14.7 14.7375 14.7H11.625V18H15.75V22.6875H13.2375L5.5875 15.0375C5.4625 15.5375 5.375 16.0333 5.325 16.525C5.275 17.0167 5.25 17.5083 5.25 18C5.25 21.375 6.3875 24.2875 8.6625 26.7375C10.9375 29.1875 13.775 30.5125 17.175 30.7125V32.9625ZM31.875 31.9875L26.85 26.9625C26.325 27.3375 25.7563 27.625 25.1438 27.825C24.5312 28.025 23.9054 28.125 23.2663 28.125C21.4909 28.125 19.9819 27.5048 18.7391 26.2643C17.4964 25.0239 16.875 23.5177 16.875 21.7456C16.875 19.9735 17.4952 18.4688 18.7357 17.2313C19.9761 15.9938 21.4823 15.375 23.2544 15.375C25.0265 15.375 26.5312 15.9964 27.7688 17.2391C29.0063 18.4819 29.625 19.9909 29.625 21.7663C29.625 22.4054 29.5188 23.0312 29.3063 23.6438C29.0938 24.2563 28.8125 24.8375 28.4625 25.3875L33.4875 30.375L31.875 31.9875ZM23.2447 25.875C24.3982 25.875 25.375 25.4768 26.175 24.6803C26.975 23.8838 27.375 22.9088 27.375 21.7553C27.375 20.6018 26.9768 19.625 26.1803 18.825C25.3838 18.025 24.4088 17.625 23.2553 17.625C22.1018 17.625 21.125 18.0232 20.325 18.8197C19.525 19.6162 19.125 20.5912 19.125 21.7447C19.125 22.8982 19.5232 23.875 20.3197 24.675C21.1162 25.475 22.0912 25.875 23.2447 25.875Z" fill="#FFA24D"/>
</svg>
