<svg width="18" height="18" viewBox="0 0 18 18" fill="none" xmlns="http://www.w3.org/2000/svg">
<path d="M8.5875 16.4813C7.6 16.4313 6.675 16.2 5.8125 15.7875C4.95 15.375 4.2 14.8344 3.5625 14.1656C2.925 13.4969 2.42188 12.7202 2.05313 11.8356C1.68438 10.951 1.5 10.0058 1.5 9C1.5 7.9625 1.69688 6.9875 2.09063 6.075C2.48438 5.1625 3.01875 4.36875 3.69375 3.69375C4.36875 3.01875 5.1625 2.48438 6.075 2.09063C6.9875 1.69688 7.9625 1.5 9 1.5C10.8625 1.5 12.4813 2.0875 13.8563 3.2625C15.2313 4.4375 16.075 5.9125 16.3875 7.6875H15.2438C15.0313 6.6375 14.5875 5.7 13.9125 4.875C13.2375 4.05 12.3938 3.43125 11.3813 3.01875V3.35625C11.3813 3.79375 11.2313 4.175 10.9313 4.5C10.6313 4.825 10.2625 4.9875 9.825 4.9875H8.19375V6.61875C8.19375 6.82594 8.10938 6.99961 7.94063 7.13976C7.77188 7.27992 7.58125 7.35 7.36875 7.35H5.8125V9H7.875V11.3438H6.61875L2.79375 7.51875C2.73125 7.76875 2.6875 8.01667 2.6625 8.26251C2.6375 8.50833 2.625 8.75416 2.625 9C2.625 10.6875 3.19375 12.1438 4.33125 13.3688C5.46875 14.5938 6.8875 15.2563 8.5875 15.3563V16.4813ZM15.9375 15.9938L13.425 13.4813C13.1625 13.6688 12.8781 13.8125 12.5719 13.9125C12.2656 14.0125 11.9527 14.0625 11.6332 14.0625C10.7455 14.0625 9.99094 13.7524 9.36956 13.1322C8.74819 12.5119 8.4375 11.7588 8.4375 10.8728C8.4375 9.98676 8.74761 9.23438 9.36784 8.61563C9.98805 7.99688 10.7412 7.6875 11.6272 7.6875C12.5132 7.6875 13.2656 7.99819 13.8844 8.61956C14.5031 9.24094 14.8125 9.99547 14.8125 10.8832C14.8125 11.2027 14.7594 11.5156 14.6531 11.8219C14.5469 12.1281 14.4063 12.4188 14.2313 12.6938L16.7438 15.1875L15.9375 15.9938ZM11.6224 12.9375C12.1991 12.9375 12.6875 12.7384 13.0875 12.3401C13.4875 11.9419 13.6875 11.4544 13.6875 10.8776C13.6875 10.3009 13.4884 9.8125 13.0901 9.4125C12.6919 9.0125 12.2044 8.8125 11.6276 8.8125C11.0509 8.8125 10.5625 9.01162 10.1625 9.40986C9.7625 9.80809 9.5625 10.2956 9.5625 10.8724C9.5625 11.4491 9.76162 11.9375 10.1599 12.3375C10.5581 12.7375 11.0456 12.9375 11.6224 12.9375Z" fill="#D45093"/>
</svg>
