<svg width="16" height="16" viewBox="0 0 16 16" fill="none" xmlns="http://www.w3.org/2000/svg">
<g clip-path="url(#clip0_100_267)">
<path d="M8.47996 1.35333C4.41996 1.06666 1.06663 4.41999 1.3533 8.47999C1.5933 12.0067 4.6733 14.6667 8.20663 14.6667H10.6666C11.0333 14.6667 11.3333 14.3667 11.3333 14C11.3333 13.6333 11.0333 13.3333 10.6666 13.3333H8.21996C5.7333 13.3333 3.4533 11.72 2.8333 9.31333C1.83996 5.44666 5.43996 1.83999 9.30663 2.83999C11.72 3.45333 13.3333 5.73333 13.3333 8.21999V8.95333C13.3333 9.47999 12.86 9.99999 12.3333 9.99999C11.8066 9.99999 11.3333 9.47999 11.3333 8.95333V8.11999C11.3333 6.44666 10.1466 4.93999 8.4933 4.70666C6.22663 4.37999 4.3133 6.33999 4.71996 8.61999C4.94663 9.89333 5.93996 10.9467 7.19996 11.2467C8.42663 11.5333 9.5933 11.14 10.36 10.36C10.9533 11.1733 12.14 11.6 13.2266 11.1667C14.12 10.8133 14.6666 9.89999 14.6666 8.93999V8.21333C14.6666 4.67333 12.0066 1.59333 8.47996 1.35333ZM7.99996 9.99999C6.8933 9.99999 5.99996 9.10666 5.99996 7.99999C5.99996 6.89333 6.8933 5.99999 7.99996 5.99999C9.10663 5.99999 9.99996 6.89333 9.99996 7.99999C9.99996 9.10666 9.10663 9.99999 7.99996 9.99999Z" fill="#9A9A9A"/>
</g>
<defs>
<clipPath id="clip0_100_267">
<rect width="16" height="16" fill="white"/>
</clipPath>
</defs>
</svg>
