<svg width="30" height="34" viewBox="0 0 30 34" fill="none" xmlns="http://www.w3.org/2000/svg">
<path d="M10.9786 32.7965C9.47828 33.2527 8.05714 33.0902 6.60224 32.3572C8.26686 31.6398 8.80909 30.343 9.13013 28.7594C7.10549 27.7202 5.20706 26.4946 3.61595 24.8174C-0.743909 20.2216 -1.17846 12.3818 2.40628 7.61063C3.64602 5.96058 3.89787 4.33309 3.57889 2.47334C3.44408 1.68736 3.13982 0.811655 3.94311 0.242504C4.78302 -0.352599 5.57464 0.286854 6.25216 0.675436C8.04443 1.70337 9.77175 1.84158 11.8702 1.35124C14.2194 0.802293 16.8175 0.709811 19.1313 1.57591C21.0031 2.27659 22.5898 1.93297 24.3064 1.36876C25.4004 1.00919 26.6872 0.128465 27.6666 1.06693C28.4637 1.83066 27.6466 3.02723 27.4123 3.98474C27.031 5.54279 27.1771 6.81642 28.0555 8.30503C31.8566 14.7465 30.0845 23.669 22.7423 27.7658C22.3421 27.989 21.8559 28.1344 21.6226 28.7372C22.7947 29.6348 22.8143 31.5147 24.7299 31.9321C25.2387 32.043 25.1425 32.7702 24.533 32.9361C23.2889 33.2749 22.0121 33.5524 20.677 32.7983C21.1162 31.9343 22.2231 31.2047 21.0039 30.2684C20.1714 29.6291 19.4477 28.7276 18.1086 29.7006C18.7164 30.7184 18.115 32.3129 19.9733 32.7812C20.5874 32.936 20.526 33.6505 19.9648 33.7725C18.675 34.0529 17.3278 34.203 15.7613 33.4338C17.5491 32.4154 17.509 31.2882 16.4113 30.1518C15.9027 29.6252 15.19 29.5543 14.7225 30.2263C13.931 31.3642 13.6562 32.4977 15.3027 33.2647C13.8873 34.3312 11.859 34.213 11.1188 32.9333C13.4818 32.5244 12.5151 30.7359 13.1725 29.6693C10.4945 29.254 10.4252 29.2952 9.92469 31.4504C10.3334 31.8472 11.2328 31.918 10.9786 32.7965ZM6.34375 24.0557C9.05539 26.5337 12.289 27.4871 16.0155 27.272C24.3766 26.7895 30.4857 18.2131 26.142 9.86936C23.7552 5.28441 19.4891 3.20652 14.2031 3.48229C9.02917 3.75222 5.22217 6.32554 3.36408 10.9503C1.44975 15.7151 2.31412 20.1497 6.34375 24.0557Z" fill="url(#paint0_linear_95_301)"/>
<path d="M22.8453 14.3801C23.0974 17.3134 22.5502 19.9033 20.5014 22.1554C17.7869 25.1393 13.255 25.4265 10.1228 22.7832C5.88403 19.206 5.82467 11.7953 10.0058 8.16619C12.8913 5.66164 17.418 5.76031 20.1895 8.44473C21.87 10.0723 22.8576 11.9846 22.8453 14.3801ZM20.5973 14.4785C20.5079 12.5534 19.7227 10.8845 18.1237 9.55567C16.1746 7.93589 13.4617 8.01699 11.6232 9.70629C8.49637 12.5794 8.45906 18.2143 11.5476 21.122C13.5277 22.986 16.5215 22.9666 18.4667 21.0604C20.2955 19.2682 20.7259 17.0973 20.5973 14.4785Z" fill="url(#paint1_linear_95_301)"/>
<path d="M12.25 18.276C10.8358 16.6367 10.693 14.9214 11.6711 13.2423C12.5006 11.8184 13.9888 11.2835 15.6561 11.4934C17.1619 11.683 18.4344 12.3982 18.8945 13.8511C19.3743 15.3662 19.4107 16.9281 18.1038 18.1708C16.8199 19.3917 15.2308 19.4405 13.5984 19.0276C13.1535 18.915 12.7663 18.5948 12.25 18.276Z" fill="url(#paint2_linear_95_301)"/>
<defs>
<linearGradient id="paint0_linear_95_301" x1="0" y1="17" x2="30" y2="17" gradientUnits="userSpaceOnUse">
<stop stop-color="#FA973C"/>
<stop offset="0.59" stop-color="#EA6D80"/>
<stop offset="1" stop-color="#B82BAA"/>
</linearGradient>
<linearGradient id="paint1_linear_95_301" x1="6.90649" y1="15.4752" x2="22.9024" y2="15.4752" gradientUnits="userSpaceOnUse">
<stop stop-color="#FA973C"/>
<stop offset="0.59" stop-color="#EA6D80"/>
<stop offset="1" stop-color="#B82BAA"/>
</linearGradient>
<linearGradient id="paint2_linear_95_301" x1="11.043" y1="15.3552" x2="19.2002" y2="15.3552" gradientUnits="userSpaceOnUse">
<stop stop-color="#FA973C"/>
<stop offset="0.59" stop-color="#EA6D80"/>
<stop offset="1" stop-color="#B82BAA"/>
</linearGradient>
</defs>
</svg>
