<svg width="118" height="38" viewBox="0 0 118 38" fill="none" xmlns="http://www.w3.org/2000/svg">
<path d="M33.8197 23.2138C33.8191 18.0938 33.8496 13.1144 33.7953 8.13587C33.7826 6.96482 34.2123 6.5465 35.3884 6.56665C38.3494 6.6174 41.3126 6.47793 44.2707 6.75459C48.0902 7.11182 50.5299 10.2737 49.4596 13.5256C49.0823 14.6719 48.3911 15.399 46.668 16.4576C46.6965 16.8284 47.0469 16.834 47.288 16.9325C49.4705 17.8242 50.4879 19.5055 50.5 21.6978C50.5124 23.9356 49.4673 25.6659 47.336 26.6931C46.2789 27.2026 45.1594 27.519 43.979 27.5294C41.0637 27.555 38.1476 27.5143 35.2329 27.5625C34.166 27.5802 33.7331 27.214 33.8055 26.1723C33.8705 25.2371 33.8196 24.2943 33.8197 23.2138ZM44.732 19.3972C43.2944 18.1511 41.5279 18.6084 39.8652 18.5081C38.9049 18.4501 38.5764 18.8841 38.5982 19.7653C38.7138 24.4254 37.8565 23.6985 42.6263 23.6713C45.2949 23.6561 46.2767 21.7643 44.732 19.3972ZM38.5 15.0667C38.5 15.5667 41.5066 15.2887 42.5115 15.18C43.658 15.0559 44.4779 14.4157 44.7917 13.2975C45.0325 12.4394 44.6319 11.1434 44 10.5667C43.3871 10.0072 41.5 10.0667 40 10.0667C39.5 10.0667 38.6328 9.92976 38.5 10.5667C38.3672 11.2035 38.5 14.5667 38.5 15.0667Z" fill="url(#paint0_linear_53_139)"/>
<path d="M105.558 12.0039C106.337 12.3434 106.842 12.854 107.395 13.3908C107.918 12.9802 107.619 12.2992 108.002 11.8486C108.11 11.8131 108.243 11.7377 108.38 11.7288C112.411 11.4676 112.412 11.4687 112.412 15.3267C112.412 19.323 112.418 23.3194 112.409 27.3158C112.403 30.0657 111.035 32.0089 108.351 32.8679C105.335 33.833 102.326 33.8791 99.4736 32.3087C98.2594 31.6404 97.3679 30.6846 97.0838 29.072C98.9387 28.9661 100.61 27.8844 102.395 29.5387C103.448 30.5143 105.057 30.292 106.404 29.6939C107.655 29.1385 107.811 27.9968 107.824 26.8279C107.829 26.3131 107.825 25.7982 107.825 24.9444C106.409 26.5866 104.861 27.2826 102.877 27.1879C100.207 27.0605 98.3093 25.8753 97.2899 23.559C96.0528 20.7482 96.1212 17.855 97.4321 15.0764C98.9036 11.9576 102.104 10.7665 105.558 12.0039ZM101.533 17.913C101.146 19.1733 101.242 20.4219 101.684 21.6444C102.17 22.9917 103.129 23.6851 104.658 23.6514C106.139 23.6186 107.012 22.8502 107.449 21.5853C107.854 20.4155 107.944 19.2246 107.601 17.9881C107.103 16.1896 106.264 15.3059 104.779 15.2393C103.057 15.162 102.287 15.7519 101.533 17.913Z" fill="url(#paint1_linear_53_139)"/>
<path d="M90.1493 28.4457C84.6028 30.2194 79.4366 27.6919 78.1417 22.5647C77.6037 20.4342 77.7776 18.2746 79.059 16.3897C79.7698 15.3441 80.0999 14.3191 80.0305 13.0709C79.9548 11.7096 80.3176 11.4955 81.5797 12.1449C82.5955 12.6675 83.5623 12.7961 84.6603 12.4905C85.8612 12.1562 87.1023 12.164 88.2995 12.5037C89.6178 12.8777 90.8504 12.8527 92.1643 12.3758C93.4823 11.8975 93.8768 12.3037 93.5794 13.621C93.3445 14.6612 93.3967 15.5423 93.9874 16.5634C96.4229 20.7733 94.6464 26.2185 90.1493 28.4457ZM87.8531 15.7683C86.4985 15.3685 85.228 15.4611 84.1522 16.44C82.0316 18.3695 82.0385 22.5278 84.1494 24.4609C85.6773 25.8601 87.8161 25.7024 89.2303 24.1795C90.9733 22.3025 91.0324 17.2896 87.8531 15.7683Z" fill="url(#paint2_linear_53_139)"/>
<path d="M73.4279 26.1734C69.6652 28.5588 65.0761 28.1917 62.4139 25.3633C59.7333 22.5154 59.5622 17.3494 62.0455 14.2388C63.9605 11.8401 67.4514 10.8801 70.9024 11.8032C73.8035 12.5791 75.8155 14.9947 76.2264 18.0491C76.6463 21.1709 76.0488 23.9361 73.4279 26.1734ZM66.5121 23.489C68.572 24.6988 70.3297 24.1601 71.1496 22.047C71.8257 20.3048 71.7554 18.5637 71.0254 16.8526C70.5386 15.7115 69.6461 15.0285 68.3573 15.0177C67.0623 15.0069 66.1432 15.6806 65.6813 16.8302C64.7702 19.098 64.7912 21.3004 66.5121 23.489Z" fill="url(#paint3_linear_53_139)"/>
<path d="M56.4428 6.44744C57.529 6.46637 57.791 6.99721 57.7887 7.83715C57.7726 13.9012 57.7668 19.9653 57.7922 26.0293C57.7965 27.0509 57.4133 27.453 56.3364 27.4302C52.3461 27.3458 52.9987 27.8223 52.9707 24.2392C52.9304 19.0686 52.9598 13.8974 52.9678 8.72648C52.9714 6.44564 52.9807 6.44521 55.2883 6.43522C55.6287 6.43375 55.9691 6.43878 56.4428 6.44744Z" fill="url(#paint4_linear_53_139)"/>
<path d="M85.4471 22.236C84.3021 21.4126 84.0784 20.1995 84.631 19.2769C85.2071 18.3149 86.1464 17.9752 87.2395 18.316C88.4182 18.6834 88.8778 19.5587 88.7351 20.7204C88.578 21.9986 87.2395 22.8005 85.4471 22.236Z" fill="url(#paint5_linear_53_139)"/>
<path d="M13.3095 31.8139C12.0901 32.1891 10.9352 32.0555 9.75276 31.4526C11.1056 30.8625 11.5463 29.7958 11.8072 28.4933C10.1618 27.6385 8.61889 26.6304 7.32579 25.2508C3.78251 21.4707 3.42934 15.0222 6.34268 11.0977C7.35022 9.74053 7.55491 8.40187 7.29567 6.87216C7.18611 6.22568 6.93884 5.50538 7.59167 5.03724C8.27427 4.54775 8.91762 5.07371 9.46825 5.39334C10.9248 6.23884 12.3286 6.35252 14.034 5.94921C15.9433 5.49768 18.0548 5.42161 19.9352 6.134C21.4564 6.71033 22.7459 6.42769 24.141 5.96361C25.0301 5.66786 26.076 4.94343 26.8719 5.71535C27.5197 6.34354 26.8556 7.32776 26.6652 8.11534C26.3553 9.39689 26.4741 10.4445 27.188 11.6689C30.2771 16.9672 28.8369 24.3063 22.8699 27.676C22.5447 27.8596 22.1495 27.9792 21.9599 28.475C22.9125 29.2133 22.9284 30.7596 24.4852 31.1029C24.8987 31.1941 24.8205 31.7922 24.3252 31.9288C23.3141 32.2074 22.2765 32.4356 21.1914 31.8153C21.5483 31.1047 22.4479 30.5046 21.4571 29.7345C20.7805 29.2086 20.1923 28.4671 19.1041 29.2674C19.598 30.1046 19.1093 31.4161 20.6195 31.8013C21.1186 31.9286 21.0687 32.5163 20.6126 32.6167C19.5643 32.8473 18.4695 32.9708 17.1964 32.338C18.6494 31.5004 18.6167 30.5733 17.7247 29.6385C17.3113 29.2054 16.7321 29.1471 16.3522 29.6998C15.7089 30.6358 15.4856 31.5681 16.8237 32.199C15.6734 33.0762 14.025 32.979 13.4234 31.9264C15.3438 31.5901 14.5582 30.119 15.0924 29.2417C12.916 28.9001 12.8597 28.9339 12.4529 30.7067C12.7851 31.0331 13.516 31.0913 13.3095 31.8139ZM9.54269 24.6243C11.7464 26.6625 14.3744 27.4467 17.4029 27.2698C24.1981 26.8729 29.1629 19.8186 25.6329 12.9556C23.6931 9.18436 20.226 7.47523 15.93 7.70206C11.7251 7.92409 8.63117 10.0407 7.1211 13.8447C5.5653 17.7639 6.26778 21.4115 9.54269 24.6243Z" fill="white"/>
<path d="M22.9536 16.6658C23.1584 19.0786 22.7137 21.2088 21.0487 23.0612C18.8425 25.5156 15.1595 25.7519 12.6139 23.5777C9.16904 20.6353 9.1208 14.5398 12.5188 11.5547C14.8639 9.49465 18.5427 9.5758 20.7952 11.7838C22.1609 13.1226 22.9636 14.6954 22.9536 16.6658ZM21.1266 16.7467C21.0539 15.1633 20.4158 13.7906 19.1163 12.6976C17.5322 11.3653 15.3274 11.432 13.8333 12.8215C11.2921 15.1847 11.2618 19.8196 13.7719 22.2112C15.3811 23.7445 17.8142 23.7285 19.395 22.1606C20.8813 20.6865 21.2311 18.9008 21.1266 16.7467Z" fill="white"/>
<path d="M14.3426 19.8704C13.1933 18.522 13.0773 17.1111 13.8722 15.73C14.5463 14.5588 15.7558 14.1188 17.1108 14.2915C18.3346 14.4474 19.3688 15.0357 19.7427 16.2307C20.1326 17.477 20.1622 18.7617 19.1001 19.7838C18.0567 20.7881 16.7652 20.8282 15.4385 20.4885C15.077 20.396 14.7622 20.1326 14.3426 19.8704Z" fill="white"/>
<defs>
<linearGradient id="paint0_linear_53_139" x1="33.638" y1="16.9324" x2="50.343" y2="16.9324" gradientUnits="userSpaceOnUse">
<stop stop-color="#FA973C"/>
<stop offset="1" stop-color="#E97C58"/>
</linearGradient>
<linearGradient id="paint1_linear_53_139" x1="96.4038" y1="22.5357" x2="112.414" y2="22.5357" gradientUnits="userSpaceOnUse">
<stop stop-color="#CA449A"/>
<stop offset="1" stop-color="#B82BAA"/>
</linearGradient>
<linearGradient id="paint2_linear_53_139" x1="77.8553" y1="20.4013" x2="95.0827" y2="20.4013" gradientUnits="userSpaceOnUse">
<stop stop-color="#DD5D8B"/>
<stop offset="0.57" stop-color="#D45093"/>
<stop offset="1" stop-color="#CA449A"/>
</linearGradient>
<linearGradient id="paint3_linear_53_139" x1="60.288" y1="19.6027" x2="76.3487" y2="19.6027" gradientUnits="userSpaceOnUse">
<stop stop-color="#EA6D80"/>
<stop offset="1" stop-color="#DE5D8B"/>
</linearGradient>
<linearGradient id="paint4_linear_53_139" x1="52.9468" y1="16.933" x2="57.7923" y2="16.933" gradientUnits="userSpaceOnUse">
<stop stop-color="#E97C58"/>
<stop offset="0.56" stop-color="#E9756C"/>
<stop offset="1" stop-color="#EA6D80"/>
</linearGradient>
<linearGradient id="paint5_linear_53_139" x1="84.3422" y1="20.3034" x2="88.7603" y2="20.3034" gradientUnits="userSpaceOnUse">
<stop stop-color="#D45093"/>
<stop offset="1" stop-color="#D45093"/>
</linearGradient>
</defs>
</svg>
